<?xml version="1.0" encoding="utf-8"?>
<!-- Generator: Adobe Illustrator 25.4.1, SVG Export Plug-In . SVG Version: 6.00 Build 0)  -->
<svg version="1.1" id="Layer_1" xmlns="http://www.w3.org/2000/svg" xmlns:xlink="http://www.w3.org/1999/xlink" x="0px" y="0px"
	 viewBox="0 0 128 128" style="enable-background:new 0 0 128 128;" xml:space="preserve">
<style type="text/css">
	.st0{fill:#FFFFFF;}
</style>
<path class="st0" d="M68.2,98.3c-3.6-2.5-8.2,1.2-9.9,5.1c-1.4,3.5,0.3,6.7,3.9,7.7c2,0.6,4.1,0.4,6-0.4c4.4-2.1,3.9-7.1,1.6-10.7
	C69.4,99.4,68.8,98.8,68.2,98.3z"/>
<path class="st0" d="M98.6,64c-1,0-2.1,0.1-3.1,0.3c-3.7,0.5-7.4,1.6-10.8,3.2c-1.7,0.9-3.3,2-5,2.8C77.9,71,75.7,71,74.1,72
	c-1,0.6-1.8,1.7-2.1,2.8c-0.5,2.2,0.9,4,2.8,5c2.7,1.5,5.4,2.9,8,4.4c2.2,1.3,4.7,3.3,7.4,2.8c1.9-0.3,3.6-2,5-3.3
	c1.8-1.6,3.6-3.3,5.3-5.1c2-2.1,5-4.4,6.1-7.2c0.6-1.9,0-3.9-1.5-5.2C103.3,64.7,101,63.9,98.6,64z"/>
<path class="st0" d="M126.3,62.7c0-0.2,0-0.3,0-0.5c0-0.3,0-0.5,0-0.8c0-0.5,0-0.9-0.1-1.4c0-0.1,0-0.2,0-0.3c0-0.3,0-0.6-0.1-1
	l0-0.2C123.4,28.6,99.8,4.8,69.8,2c-0.1,0-0.1,0-0.2,0c-0.5,0-1.1-0.1-1.6-0.1c-0.2,0-0.3,0-0.4,0c-0.5,0-0.9,0-1.4-0.1
	c-0.2,0-0.3,0-0.5,0c-0.6,0-1.2,0-1.8,0c-0.5,0-0.9,0-1.4,0c-0.2,0-0.5,0-0.7,0c-0.2,0-0.4,0-0.6,0c-0.4,0-0.7,0-1.1,0.1
	c0,0-0.1,0-0.1,0C29.4,3.7,4.7,27.8,1.9,58.5C1.8,60.3,1.7,62,1.7,64c0,0.5,0,1,0,1.5l0,0.5c0,0.3,0,0.6,0,0.9c0,0.2,0,0.4,0,0.6
	c0,0.3,0,0.5,0,0.8c0,0.2,0,0.5,0.1,0.7c0,0.2,0,0.4,0.1,0.6C2,70,2,70.2,2,70.5c0,0.2,0,0.4,0.1,0.6c0,0.2,0,0.4,0.1,0.6l0,0.3
	c0.5,4.3,1.5,8.5,3,12.6c0,0,0,0,0,0c0.1,0.3,0.2,0.7,0.4,1c0,0.1,0.1,0.2,0.1,0.3c0.1,0.3,0.2,0.6,0.3,0.8c0.1,0.2,0.2,0.4,0.2,0.6
	c0.1,0.2,0.2,0.4,0.2,0.6c5.7,13.7,16.2,25,29.5,31.7c0,0,0.1,0,0.1,0.1c0.3,0.2,0.6,0.3,1,0.5c0.2,0.1,0.4,0.2,0.6,0.3
	c0.1,0,0.2,0.1,0.3,0.1c8.2,3.7,17,5.7,26,5.7h0c0.5,0,1,0,1.6,0c0.1,0,0.2,0,0.2,0c0.5,0,0.9,0,1.4-0.1c0,0,0,0,0.1,0
	c31.9-1.7,57.3-27.1,59-59c0,0,0,0,0-0.1c0-0.5,0-0.9,0.1-1.4l0-0.2c0-0.5,0-1.1,0-1.6v0C126.3,63.6,126.3,63.1,126.3,62.7z
	 M64,118.1c-0.2,0-0.5,0-0.7,0c-0.3,0-0.9-0.6-1.1-0.7c-0.4-0.3-0.9-0.6-1.3-0.9c-0.8-0.6-1.6-1.2-2.3-1.8c-1.9-1.5-3.5-3.2-4.9-5.1
	c-2.9-4.4-2.4-9.4,0.3-13.8c1.9-3.1,4.8-5.6,7-8.4c2.5-3.1,4.5-6.7,5.7-10.5c1.1-3.5,0.4-7.2-1.7-10.2c-2.6-3.2-7.4-4.9-11.2-5.9
	c-0.5-0.1-1-0.2-1.5-0.3c-1.1-0.2-2.2-0.3-3.3-0.3c-4-0.2-8-0.1-11.9,0.3c-3.5,0.3-7.1,1.4-10.4-0.3c-2.8-1.4-5.4-3.4-8.5-4.2
	c-2.4-0.6-4.9-0.8-7.4-0.8c5-29.5,32.9-49.3,62.3-44.3c0.8,0.1,1.7,0.3,2.5,0.5c0.2,4.1,4,6.6,2.1,11c-2.6,5.9-9.9,7.7-12.9,13.3
	c-1.4,2.4-1.3,5.5,0.3,7.8c1.1,1.7,2.1,3.5,3,5.3c1.3,2.5,2.7,5.8,5.3,7.3c7.6,4.4,8.2-9.2,13.4-10.1c2.8-0.5,4.4,1.1,5.7,3.4
	c1.6,2.7,2.8,5,6.2,5.7c2.1,0.3,4.2,0.3,6.3,0c1-0.1,12.1-1.8,12-2.4c6.4,29.2-12,58-41.2,64.5C71.8,117.7,67.9,118.1,64,118.1
	L64,118.1z"/>
</svg>
